name Walk3.mot
datacolumns 19
datarows 25
range 1.17600000 1.20000000
endheader

                time	   L_ground_force_vx	   L_ground_force_vy	   L_ground_force_vz	   L_ground_force_px	   L_ground_force_py	   L_ground_force_pz	   R_ground_force_vx	   R_ground_force_vy	   R_ground_force_vz	   R_ground_force_px	   R_ground_force_py	   R_ground_force_pz	   L_ground_torque_x	   L_ground_torque_y	   L_ground_torque_z	   R_ground_torque_x	   R_ground_torque_y	   R_ground_torque_z	
          1.17600000	          0.00000000	          0.00000000	          0.00000000	          0.00000000	          0.00000000	          0.00000000	          0.00000000	          0.00000000	          0.00000000	          0.00000000	          0.00000000	          0.00000000	          0.00000000	          0.00000000	          0.00000000	          0.00000000	          0.00000000	          0.00000000	
          1.17700000	          0.00000000	          0.00000000	          0.00000000	          0.00000000	          0.00000000	          0.00000000	          0.00000000	          0.00000000	          0.00000000	          0.00000000	          0.00000000	          0.00000000	          0.00000000	          0.00000000	          0.00000000	          0.00000000	          0.00000000	          0.00000000	
          1.17800000	          0.00000000	          0.00000000	          0.00000000	          0.00000000	          0.00000000	          0.00000000	          0.00000000	          0.00000000	          0.00000000	          0.00000000	          0.00000000	          0.00000000	          0.00000000	          0.00000000	          0.00000000	          0.00000000	          0.00000000	          0.00000000	
          1.17900000	         -1.19227469	         11.82041198	          0.55423474	         -0.32855849	          0.00000000	          0.04015225	          0.00000000	          0.00000000	          0.00000000	          0.00000000	          0.00000000	          0.00000000	          0.00000000	         -0.02464004	          0.00000000	          0.00000000	          0.00000000	          0.00000000	
          1.18000000	         -1.38931122	         19.98874985	          0.49684700	         -0.34423123	          0.00000000	          0.02991928	          0.00000000	          0.00000000	          0.00000000	          0.00000000	          0.00000000	          0.00000000	          0.00000000	         -0.06123408	          0.00000000	          0.00000000	          0.00000000	          0.00000000	
          1.18100000	         -1.47771306	         33.02272854	          0.11289165	         -0.35964734	          0.00000000	          0.02052498	          0.00000000	          0.00000000	          0.00000000	          0.00000000	          0.00000000	          0.00000000	          0.00000000	         -0.08983236	          0.00000000	          0.00000000	          0.00000000	          0.00000000	
          1.18200000	         -1.58059724	         54.52638522	         -0.80732488	         -0.37248120	          0.00000000	          0.01320209	          0.00000000	          0.00000000	          0.00000000	          0.00000000	          0.00000000	          0.00000000	          0.00000000	         -0.09052738	          0.00000000	          0.00000000	          0.00000000	          0.00000000	
          1.18300000	         -1.80726280	         89.11099990	         -2.56928116	         -0.38141533	          0.00000000	          0.00829652	          0.00000000	          0.00000000	          0.00000000	          0.00000000	          0.00000000	          0.00000000	          0.00000000	         -0.05165309	          0.00000000	          0.00000000	          0.00000000	          0.00000000	
          1.18400000	         -2.13791020	        141.14330460	         -5.54782161	         -0.38675404	          0.00000000	          0.00540329	          0.00000000	          0.00000000	          0.00000000	          0.00000000	          0.00000000	          0.00000000	          0.00000000	          0.02068751	          0.00000000	          0.00000000	          0.00000000	          0.00000000	
          1.18500000	         -2.37362451	        212.77079330	        -10.12771592	         -0.38954995	          0.00000000	          0.00392680	          0.00000000	          0.00000000	          0.00000000	          0.00000000	          0.00000000	          0.00000000	          0.00000000	          0.09924908	          0.00000000	          0.00000000	          0.00000000	          0.00000000	
          1.18600000	         -2.22979419	        301.80548786	        -16.64990035	         -0.39082035	          0.00000000	          0.00331886	          0.00000000	          0.00000000	          0.00000000	          0.00000000	          0.00000000	          0.00000000	          0.00000000	          0.15603366	          0.00000000	          0.00000000	          0.00000000	          0.00000000	
          1.18700000	         -1.55084740	        400.81740884	        -25.32809000	         -0.39128811	          0.00000000	          0.00316767	          0.00000000	          0.00000000	          0.00000000	          0.00000000	          0.00000000	          0.00000000	          0.00000000	          0.18563191	          0.00000000	          0.00000000	          0.00000000	          0.00000000	
          1.18800000	         -0.47808941	        498.62253593	        -36.09644188	         -0.39139382	          0.00000000	          0.00324974	          0.00000000	          0.00000000	          0.00000000	          0.00000000	          0.00000000	          0.00000000	          0.00000000	          0.19527598	          0.00000000	          0.00000000	          0.00000000	          0.00000000	
          1.18900000	          0.55635419	        583.78362304	        -48.50394794	         -0.39136345	          0.00000000	          0.00347980	          0.00000000	          0.00000000	          0.00000000	          0.00000000	          0.00000000	          0.00000000	          0.00000000	          0.18284644	          0.00000000	          0.00000000	          0.00000000	          0.00000000	
          1.19000000	          0.97766023	        648.13353846	        -61.80386211	         -0.39127466	          0.00000000	          0.00381178	          0.00000000	          0.00000000	          0.00000000	          0.00000000	          0.00000000	          0.00000000	          0.00000000	          0.14285841	          0.00000000	          0.00000000	          0.00000000	          0.00000000	
          1.19100000	          0.26659936	        688.48415216	        -75.15821805	         -0.39112285	          0.00000000	          0.00419913	          0.00000000	          0.00000000	          0.00000000	          0.00000000	          0.00000000	          0.00000000	          0.00000000	          0.08170613	          0.00000000	          0.00000000	          0.00000000	          0.00000000	
          1.19200000	         -1.86995838	        706.25140569	        -87.78808773	         -0.39088150	          0.00000000	          0.00462214	          0.00000000	          0.00000000	          0.00000000	          0.00000000	          0.00000000	          0.00000000	          0.00000000	          0.01062213	          0.00000000	          0.00000000	          0.00000000	          0.00000000	
          1.19300000	         -5.43619290	        705.93090220	        -99.06776887	         -0.39054471	          0.00000000	          0.00510224	          0.00000000	          0.00000000	          0.00000000	          0.00000000	          0.00000000	          0.00000000	          0.00000000	         -0.06561169	          0.00000000	          0.00000000	          0.00000000	          0.00000000	
          1.19400000	        -10.21806612	        693.45731817	       -108.60630393	         -0.39013590	          0.00000000	          0.00566228	          0.00000000	          0.00000000	          0.00000000	          0.00000000	          0.00000000	          0.00000000	          0.00000000	         -0.14326044	          0.00000000	          0.00000000	          0.00000000	          0.00000000	
          1.19500000	        -15.91583265	        674.89924017	       -116.27417378	         -0.38968486	          0.00000000	          0.00628137	          0.00000000	          0.00000000	          0.00000000	          0.00000000	          0.00000000	          0.00000000	          0.00000000	         -0.21437475	          0.00000000	          0.00000000	          0.00000000	          0.00000000	
          1.19600000	        -22.24606762	        655.47116064	       -122.16192639	         -0.38920578	          0.00000000	          0.00688984	          0.00000000	          0.00000000	          0.00000000	          0.00000000	          0.00000000	          0.00000000	          0.00000000	         -0.27220294	          0.00000000	          0.00000000	          0.00000000	          0.00000000	
          1.19700000	        -28.99179594	        638.87818041	       -126.50440812	         -0.38869534	          0.00000000	          0.00738927	          0.00000000	          0.00000000	          0.00000000	          0.00000000	          0.00000000	          0.00000000	          0.00000000	         -0.31011636	          0.00000000	          0.00000000	          0.00000000	          0.00000000	
          1.19800000	        -36.03631483	        627.13548376	       -129.57611065	         -0.38814643	          0.00000000	          0.00768689	          0.00000000	          0.00000000	          0.00000000	          0.00000000	          0.00000000	          0.00000000	          0.00000000	         -0.31397771	          0.00000000	          0.00000000	          0.00000000	          0.00000000	
          1.19900000	        -43.36476497	        620.83857571	       -131.58240516	         -0.38756921	          0.00000000	          0.00775739	          0.00000000	          0.00000000	          0.00000000	          0.00000000	          0.00000000	          0.00000000	          0.00000000	         -0.27156975	          0.00000000	          0.00000000	          0.00000000	          0.00000000	
          1.20000000	        -50.99541115	        619.61833928	       -132.62087061	         -0.38699502	          0.00000000	          0.00767464	          0.00000000	          0.00000000	          0.00000000	          0.00000000	          0.00000000	          0.00000000	          0.00000000	         -0.19069952	          0.00000000	          0.00000000	          0.00000000	          0.00000000	
